<svg width="284" height="567" viewBox="0 0 284 567" fill="none" xmlns="http://www.w3.org/2000/svg">
<rect width="284" height="563" fill="white"/>
<path d="M187.516 383.734C186.533 373.822 182.315 366.122 174.861 360.634C167.407 355.146 157.29 352.402 144.512 352.402C135.829 352.402 128.498 353.631 122.518 356.088C116.539 358.464 111.952 361.781 108.757 366.04C105.644 370.3 104.088 375.133 104.088 380.539C103.924 385.044 104.866 388.976 106.914 392.335C109.044 395.693 111.952 398.601 115.638 401.058C119.324 403.434 123.583 405.522 128.416 407.325C133.249 409.045 138.409 410.519 143.898 411.748L166.506 417.154C177.482 419.611 187.557 422.888 196.731 426.984C205.906 431.079 213.851 436.117 220.568 442.097C227.285 448.076 232.486 455.121 236.173 463.23C239.941 471.339 241.865 480.637 241.947 491.121C241.865 506.521 237.934 519.873 230.152 531.177C222.452 542.399 211.312 551.123 196.731 557.348C182.233 563.491 164.744 566.563 144.266 566.563C123.952 566.563 106.259 563.451 91.1867 557.225C76.1966 551 64.4831 541.785 56.0461 529.58C47.691 517.293 43.3086 502.098 42.8991 483.995H94.3813C94.9547 492.432 97.3711 499.477 101.631 505.129C105.972 510.699 111.747 514.917 118.955 517.784C126.245 520.569 134.478 521.962 143.652 521.962C152.662 521.962 160.485 520.651 167.12 518.03C173.837 515.409 179.038 511.763 182.724 507.094C186.41 502.425 188.253 497.06 188.253 490.999C188.253 485.347 186.574 480.596 183.216 476.746C179.939 472.896 175.106 469.619 168.717 466.916C162.41 464.213 154.669 461.756 145.495 459.544L118.095 452.663C96.8796 447.503 80.1285 439.434 67.8415 428.458C55.5546 417.482 49.4521 402.696 49.534 384.102C49.4521 368.866 53.5068 355.556 61.6981 344.17C69.9713 332.784 81.3162 323.896 95.7329 317.507C110.15 311.118 126.532 307.923 144.881 307.923C163.557 307.923 179.857 311.118 193.783 317.507C207.79 323.896 218.684 332.784 226.466 344.17C234.248 355.556 238.261 368.744 238.507 383.734H187.516Z" fill="black"/>
</svg>
