<svg width="1380" height="637" viewBox="0 0 1380 637" fill="none" xmlns="http://www.w3.org/2000/svg">
<rect width="284" height="563" fill="white"/>
<path d="M187.516 383.734C186.533 373.822 182.315 366.122 174.861 360.634C167.407 355.146 157.29 352.402 144.512 352.402C135.829 352.402 128.498 353.631 122.518 356.088C116.539 358.464 111.952 361.781 108.757 366.04C105.644 370.3 104.088 375.133 104.088 380.539C103.924 385.044 104.866 388.976 106.914 392.335C109.044 395.693 111.952 398.601 115.638 401.058C119.324 403.434 123.583 405.522 128.416 407.325C133.249 409.045 138.409 410.519 143.898 411.748L166.506 417.154C177.482 419.611 187.557 422.888 196.731 426.984C205.906 431.079 213.851 436.117 220.568 442.097C227.285 448.076 232.486 455.121 236.173 463.23C239.941 471.339 241.865 480.637 241.947 491.121C241.865 506.521 237.934 519.873 230.152 531.177C222.452 542.399 211.312 551.123 196.731 557.348C182.233 563.491 164.744 566.563 144.266 566.563C123.952 566.563 106.259 563.451 91.1867 557.225C76.1966 551 64.4831 541.785 56.0461 529.58C47.691 517.293 43.3086 502.098 42.8991 483.995H94.3813C94.9547 492.432 97.3711 499.477 101.631 505.129C105.972 510.699 111.747 514.917 118.955 517.784C126.245 520.569 134.478 521.962 143.652 521.962C152.662 521.962 160.485 520.651 167.12 518.03C173.837 515.409 179.038 511.763 182.724 507.094C186.41 502.425 188.253 497.06 188.253 490.999C188.253 485.347 186.574 480.596 183.216 476.746C179.939 472.896 175.106 469.619 168.717 466.916C162.41 464.213 154.669 461.756 145.495 459.544L118.095 452.663C96.8796 447.503 80.1285 439.434 67.8415 428.458C55.5546 417.482 49.4521 402.696 49.534 384.102C49.4521 368.866 53.5068 355.556 61.6981 344.17C69.9713 332.784 81.3162 323.896 95.7329 317.507C110.15 311.118 126.532 307.923 144.881 307.923C163.557 307.923 179.857 311.118 193.783 317.507C207.79 323.896 218.684 332.784 226.466 344.17C234.248 355.556 238.261 368.744 238.507 383.734H187.516Z" fill="black"/>
<path d="M377.244 566.249C360.42 566.249 345.87 562.675 333.595 555.527C321.392 548.306 311.969 538.269 305.326 525.417C298.683 512.492 295.362 497.509 295.362 480.468C295.362 463.283 298.683 448.264 305.326 435.411C311.969 422.486 321.392 412.45 333.595 405.301C345.87 398.08 360.42 394.47 377.244 394.47C394.068 394.47 408.582 398.08 420.785 405.301C433.06 412.45 442.519 422.486 449.162 435.411C455.805 448.264 459.126 463.283 459.126 480.468C459.126 497.509 455.805 512.492 449.162 525.417C442.519 538.269 433.06 548.306 420.785 555.527C408.582 562.675 394.068 566.249 377.244 566.249ZM377.461 530.507C385.115 530.507 391.505 528.341 396.632 524.009C401.758 519.604 405.621 513.611 408.221 506.029C410.892 498.447 412.228 489.819 412.228 480.143C412.228 470.467 410.892 461.839 408.221 454.257C405.621 446.675 401.758 440.682 396.632 436.278C391.505 431.873 385.115 429.671 377.461 429.671C369.735 429.671 363.236 431.873 357.965 436.278C352.766 440.682 348.831 446.675 346.159 454.257C343.56 461.839 342.26 470.467 342.26 480.143C342.26 489.819 343.56 498.447 346.159 506.029C348.831 513.611 352.766 519.604 357.965 524.009C363.236 528.341 369.735 530.507 377.461 530.507ZM564.295 566.249C547.254 566.249 532.596 562.639 520.321 555.418C508.118 548.125 498.731 538.017 492.161 525.092C485.662 512.167 482.413 497.292 482.413 480.468C482.413 463.427 485.698 448.481 492.269 435.628C498.912 422.703 508.335 412.63 520.538 405.409C532.741 398.117 547.254 394.47 564.078 394.47C578.592 394.47 591.3 397.106 602.203 402.377C613.106 407.648 621.735 415.049 628.089 424.58C634.443 434.111 637.945 445.303 638.595 458.156H595.055C593.827 449.853 590.578 443.173 585.307 438.119C580.108 432.992 573.285 430.429 564.836 430.429C557.688 430.429 551.442 432.379 546.099 436.278C540.828 440.105 536.712 445.701 533.752 453.066C530.791 460.431 529.311 469.348 529.311 479.818C529.311 490.433 530.755 499.458 533.643 506.896C536.604 514.333 540.756 520.001 546.099 523.9C551.442 527.799 557.688 529.749 564.836 529.749C570.107 529.749 574.837 528.666 579.025 526.5C583.285 524.333 586.787 521.192 589.531 517.077C592.347 512.889 594.188 507.87 595.055 502.022H638.595C637.873 514.73 634.407 525.922 628.198 535.598C622.06 545.201 613.576 552.711 602.745 558.126C591.914 563.542 579.097 566.249 564.295 566.249ZM668.137 563V396.636H714.277V563H668.137ZM691.315 375.191C684.455 375.191 678.571 372.917 673.661 368.368C668.823 363.746 666.404 358.223 666.404 351.796C666.404 345.442 668.823 339.99 673.661 335.441C678.571 330.82 684.455 328.51 691.315 328.51C698.175 328.51 704.023 330.82 708.861 335.441C713.771 339.99 716.226 345.442 716.226 351.796C716.226 358.223 713.771 363.746 708.861 368.368C704.023 372.917 698.175 375.191 691.315 375.191ZM798.677 566.141C788.063 566.141 778.604 564.3 770.3 560.617C761.996 556.862 755.425 551.339 750.587 544.046C745.822 536.681 743.439 527.511 743.439 516.535C743.439 507.293 745.136 499.531 748.53 493.249C751.923 486.967 756.545 481.912 762.393 478.085C768.242 474.258 774.885 471.37 782.322 469.42C789.832 467.471 797.702 466.099 805.934 465.305C815.609 464.294 823.408 463.355 829.329 462.489C835.25 461.55 839.546 460.178 842.217 458.373C844.889 456.568 846.225 453.896 846.225 450.358V449.708C846.225 442.848 844.059 437.541 839.726 433.787C835.466 430.032 829.401 428.154 821.53 428.154C813.227 428.154 806.62 429.996 801.71 433.678C796.8 437.289 793.55 441.838 791.962 447.325L749.288 443.859C751.454 433.75 755.714 425.013 762.068 417.648C768.422 410.211 776.618 404.507 786.655 400.535C796.764 396.492 808.461 394.47 821.747 394.47C830.989 394.47 839.835 395.553 848.283 397.719C856.803 399.886 864.349 403.243 870.92 407.792C877.563 412.341 882.797 418.19 886.624 425.338C890.451 432.415 892.365 440.899 892.365 450.791V563H848.608V539.93H847.308C844.636 545.129 841.062 549.714 836.585 553.685C832.109 557.585 826.729 560.653 820.447 562.892C814.165 565.058 806.909 566.141 798.677 566.141ZM811.891 534.298C818.678 534.298 824.671 532.962 829.87 530.29C835.069 527.547 839.149 523.864 842.109 519.243C845.07 514.622 846.55 509.387 846.55 503.538V485.884C845.106 486.822 843.12 487.689 840.593 488.483C838.138 489.205 835.358 489.891 832.253 490.541C829.148 491.118 826.043 491.66 822.938 492.165C819.833 492.599 817.017 492.996 814.49 493.357C809.075 494.151 804.345 495.415 800.302 497.148C796.258 498.881 793.117 501.227 790.879 504.188C788.64 507.076 787.521 510.686 787.521 515.019C787.521 521.301 789.796 526.103 794.345 529.424C798.966 532.673 804.815 534.298 811.891 534.298ZM974.301 341.182V563H928.161V341.182H974.301ZM1010.4 563V535.489L1091.84 434.653V433.462H1013.21V396.636H1147.41V426.638L1070.94 524.983V526.175H1150.22V563H1010.4ZM1184.64 563V535.489L1266.09 434.653V433.462H1187.45V396.636H1321.65V426.638L1245.18 524.983V526.175H1324.47V563H1184.64Z" fill="white"/>
</svg>
